<svg xmlns="http://www.w3.org/2000/svg" viewBox="0 0 310.52 109.62"><defs><style>.cls-1{fill:#5367fe;}.cls-2{fill:#fff;}</style></defs><g id="Layer_2" data-name="Layer 2"><g id="Layer_1-2" data-name="Layer 1"><path class="cls-1" d="M49.6,109.6c-3.73,0-7.46-.06-11.19,0-6.2.12-10.71-2.67-13.75-7.94q-11.22-19.52-22.41-39A14.68,14.68,0,0,1,2.24,47Q13.46,27.52,24.66,8c3-5.27,7.52-8,13.73-8,7.77.09,15.54.1,23.31,0a6.86,6.86,0,0,1,6.78,3.84c8.22,14.49,16.5,29,25,43.28,3.14,5.31,3.16,10.09,0,15.39-7.56,12.72-14.85,25.6-22.24,38.42-1.09,1.88-2.15,3.78-3.2,5.67a5.62,5.62,0,0,1-5.38,3C58.3,109.58,54,109.61,49.6,109.6Zm29-23.27c-1-1.79-1.79-3.33-2.65-4.84-3.69-6.46-7.31-13-11.15-19.34-2.95-4.9-3.23-9.55-.09-14.52s5.83-10,8.69-15c1.71-3,3.37-6,5.09-9.09a5.94,5.94,0,0,0-1-.31c-9.21,0-18.42-.09-27.63,0-5,.06-8.73,2.65-11.25,6.72-3.59,5.8-6.89,11.77-10.21,17.74a14.07,14.07,0,0,0,.06,14.48c3.09,5.5,6.3,10.93,9.42,16.41,3,5.3,7.46,8,13.69,8,8-.11,15.93,0,23.9,0C76.44,86.48,77.34,86.4,78.62,86.33Z"/><path class="cls-2" d="M154,48.54h-7.87a9.66,9.66,0,0,0-1.24-3.44,9.26,9.26,0,0,0-5.3-4.14,12.29,12.29,0,0,0-3.69-.54,11.23,11.23,0,0,0-6.23,1.76,11.68,11.68,0,0,0-4.24,5.13,19.66,19.66,0,0,0-1.54,8.23,19.92,19.92,0,0,0,1.55,8.31,11.47,11.47,0,0,0,4.25,5.09,11.31,11.31,0,0,0,6.19,1.71,12.52,12.52,0,0,0,3.62-.51,10,10,0,0,0,3.05-1.53,9.21,9.21,0,0,0,2.29-2.48,9.38,9.38,0,0,0,1.29-3.36l7.87,0A17,17,0,0,1,142.77,76.5a20.2,20.2,0,0,1-7,1.15A19.59,19.59,0,0,1,125.64,75a18.32,18.32,0,0,1-7-7.59,25.58,25.58,0,0,1-2.57-11.89,25.36,25.36,0,0,1,2.59-11.91,18.46,18.46,0,0,1,7-7.58,19.49,19.49,0,0,1,10.09-2.63,21.51,21.51,0,0,1,6.69,1,17.25,17.25,0,0,1,5.5,3,16.27,16.27,0,0,1,4,4.75A18.23,18.23,0,0,1,154,48.54Z"/><path class="cls-2" d="M174.91,77.69a15.64,15.64,0,0,1-8.2-2.08,14.12,14.12,0,0,1-5.37-5.82,19.18,19.18,0,0,1-1.9-8.75,19.29,19.29,0,0,1,1.9-8.76,14.08,14.08,0,0,1,5.37-5.85,17.2,17.2,0,0,1,16.4,0,14.08,14.08,0,0,1,5.37,5.85A19.16,19.16,0,0,1,190.39,61a19.06,19.06,0,0,1-1.91,8.75,14.12,14.12,0,0,1-5.37,5.82A15.59,15.59,0,0,1,174.91,77.69ZM175,71.6a6.55,6.55,0,0,0,4.28-1.42,8.54,8.54,0,0,0,2.58-3.82,15.83,15.83,0,0,0,.85-5.34,16,16,0,0,0-.85-5.37,8.66,8.66,0,0,0-2.58-3.84A6.5,6.5,0,0,0,175,50.39a6.65,6.65,0,0,0-4.37,1.42A8.66,8.66,0,0,0,168,55.65a16,16,0,0,0-.85,5.37,15.83,15.83,0,0,0,.85,5.34,8.54,8.54,0,0,0,2.58,3.82A6.71,6.71,0,0,0,175,71.6Z"/><path class="cls-2" d="M200.64,40.19A4.41,4.41,0,0,1,197.53,39a3.93,3.93,0,0,1,0-5.84,4.61,4.61,0,0,1,6.23,0,3.93,3.93,0,0,1,0,5.84A4.38,4.38,0,0,1,200.64,40.19Zm-3.82,36.87V44.77h7.61V77.06Z"/><path class="cls-2" d="M219.86,58.14V77.06h-7.61V44.77h7.27v5.49h.38A9.17,9.17,0,0,1,223.46,46a10.85,10.85,0,0,1,6.07-1.6,11.53,11.53,0,0,1,5.83,1.43,9.7,9.7,0,0,1,3.87,4.14,14.13,14.13,0,0,1,1.35,6.58V77.06H233V57.68a7.21,7.21,0,0,0-1.67-5.07,5.92,5.92,0,0,0-4.61-1.83,7.09,7.09,0,0,0-3.54.88,6.1,6.1,0,0,0-2.42,2.51A8.38,8.38,0,0,0,219.86,58.14Z"/><path class="cls-2" d="M253,77.52a4.48,4.48,0,0,1-3.28-1.34,4.61,4.61,0,0,1,0-6.52,4.62,4.62,0,0,1,6.51,0,4.46,4.46,0,0,1,.73,5.57,4.88,4.88,0,0,1-1.68,1.67A4.29,4.29,0,0,1,253,77.52Z"/><path class="cls-2" d="M269.36,40.19A4.41,4.41,0,0,1,266.25,39a3.93,3.93,0,0,1,0-5.84,4.63,4.63,0,0,1,6.24,0,3.95,3.95,0,0,1,0,5.84A4.42,4.42,0,0,1,269.36,40.19Zm-3.82,36.87V44.77h7.61V77.06Z"/><path class="cls-2" d="M295.05,77.69a15.64,15.64,0,0,1-8.2-2.08,14.12,14.12,0,0,1-5.37-5.82,19.06,19.06,0,0,1-1.9-8.75,19.16,19.16,0,0,1,1.9-8.76,14.08,14.08,0,0,1,5.37-5.85,17.2,17.2,0,0,1,16.4,0,14.08,14.08,0,0,1,5.37,5.85,19.16,19.16,0,0,1,1.9,8.76,19.06,19.06,0,0,1-1.9,8.75,14.12,14.12,0,0,1-5.37,5.82A15.62,15.62,0,0,1,295.05,77.69Zm0-6.09a6.56,6.56,0,0,0,4.29-1.42A8.54,8.54,0,0,0,302,66.36a16.08,16.08,0,0,0,.85-5.34,16.26,16.26,0,0,0-.85-5.37,8.66,8.66,0,0,0-2.58-3.84,6.51,6.51,0,0,0-4.29-1.42,6.65,6.65,0,0,0-4.36,1.42,8.5,8.5,0,0,0-2.58,3.84,16,16,0,0,0-.86,5.37,15.82,15.82,0,0,0,.86,5.34,8.38,8.38,0,0,0,2.58,3.82A6.7,6.7,0,0,0,295.09,71.6Z"/></g></g></svg>